<?xml version="1.0" encoding="UTF-8"?>
<svg id="Lager_2" data-name="Lager 2" xmlns="http://www.w3.org/2000/svg" viewBox="0 0 37.74 46.65">
  <defs>
    <style>
      .cls-1 {
        fill: #1d1d1b;
      }

      .cls-2 {
        fill: #fff;
      }
    </style>
  </defs>
  <g id="Lager_1-2" data-name="Lager 1">
    <g>
      <rect class="cls-1" x="35.52" y="21.77" width="2.22" height="12.03"/>
      <rect class="cls-1" x="33.3" y="33.8" width="2.22" height="6.43"/>
      <polygon class="cls-2" points="35.52 21.77 35.52 33.8 33.3 33.8 33.3 40.23 31.08 40.23 31.08 44.43 13.32 44.43 13.32 40.23 11.1 40.23 11.1 36.18 8.88 36.18 8.88 32 6.66 32 6.66 27.98 4.44 27.98 4.44 25.68 2.22 25.68 2.22 21.13 6.66 21.13 6.66 23.42 8.88 23.42 8.88 29.4 11.1 29.4 11.1 2.22 15.54 2.22 15.54 21.13 17.76 21.13 17.76 15 22.2 15 22.2 21.13 24.42 21.13 24.42 17.22 28.86 17.22 28.86 17.26 28.86 19.48 28.86 23.42 31.08 23.42 31.08 19.48 33.3 19.48 33.3 21.77 35.52 21.77"/>
      <rect class="cls-1" x="33.3" y="19.48" width="2.22" height="2.29"/>
      <polygon class="cls-1" points="33.3 40.23 33.3 46.65 33.23 46.65 12.01 46.65 11.1 46.65 11.1 40.23 13.32 40.23 13.32 44.43 31.08 44.43 31.08 40.23 33.3 40.23"/>
      <polygon class="cls-1" points="33.3 17.26 33.3 19.48 31.08 19.48 31.08 23.42 28.86 23.42 28.86 19.48 28.86 17.26 28.86 17.22 24.42 17.22 24.42 21.13 22.2 21.13 22.2 15 17.76 15 17.76 21.13 15.54 21.13 15.54 2.22 17.76 2.22 17.76 12.78 24.42 12.78 24.42 13.59 24.42 15 28.86 15 31.08 15 31.08 17.22 31.08 17.26 33.3 17.26"/>
      <rect class="cls-1" x="11.1" width="4.44" height="2.22"/>
      <rect class="cls-1" x="8.88" y="36.18" width="2.22" height="4.04"/>
      <polygon class="cls-1" points="11.1 2.22 11.1 29.4 8.88 29.4 8.88 23.42 6.66 23.42 6.66 21.13 8.88 21.13 8.88 2.22 11.1 2.22"/>
      <rect class="cls-1" x="6.66" y="32" width="2.22" height="4.19"/>
      <rect class="cls-1" x="4.44" y="27.98" width="2.22" height="4.02"/>
      <polygon class="cls-1" points="6.66 18.91 6.66 21.13 2.22 21.13 2.22 25.68 2.22 25.72 0 25.72 0 18.91 .37 18.91 2.22 18.91 6.66 18.91"/>
      <polygon class="cls-1" points="4.44 25.68 4.44 27.98 2.22 27.98 2.22 25.72 2.22 25.68 4.44 25.68"/>
    </g>
  </g>
</svg>