<?xml version="1.0" encoding="UTF-8"?>
<svg id="Lager_2" data-name="Lager 2" xmlns="http://www.w3.org/2000/svg" viewBox="0 0 175.57 26.13">
  <defs>
    <style>
      .cls-1 {
        fill: #f8ce24;
      }

      .cls-2 {
        fill: #007f58;
      }

      .cls-3 {
        fill: #fbfff8;
      }

      .cls-4 {
        fill: #43b65c;
      }
    </style>
  </defs>
  <g id="Lager_1-2" data-name="Lager 1">
    <g>
      <path class="cls-2" d="M24.33,18.07c2.2,0,2.1-.94,2.37-.95.28,0,.24.22.18.59,0,.06-.02.17-.06.41-.76,4.85-4.79,8.01-9.58,8h-4.01c-3.3,0-5.05-2.26-5.05-5.05,0-.43.06-.85.15-1.27.27-1.07,1.21-1.74,2.36-1.74h13.63Z"/>
      <path class="cls-4" d="M24.5,6.98c1.37,0,2.48-1.11,2.48-2.47V.61c0-.39.03-.62-.24-.6s-.19.95-2.39.95h-9.64c-1.13,0-2.11.76-2.4,1.86,0,0-1.12,4.36-1.16,4.53-.1.37-.04.6.2.59s.19-.95,2.39-.95h10.78Z"/>
      <path class="cls-1" d="M24.5,15.53c1.37,0,2.48-1.1,2.48-2.47h0v-3.9c0-.39.03-.62-.24-.6-.27.03-.19.95-2.39.95h-11.61c-1.13,0-2.13.76-2.42,1.86,0,0-1.12,4.36-1.16,4.53-.1.38-.04.6.2.59.24,0,.19-.96,2.39-.96h12.76,0Z"/>
      <path class="cls-2" d="M5.61,21.18c0-.45.05-.9.14-1.35l3.64-15.73c.06-.22.1-.45.1-.68,0-1.36-1.1-2.46-2.46-2.47H2.67C.46.95.54.03.27,0s-.27.24-.27.62v16.48c0,3.54,3.02,7.94,7.45,8.83.38.07.6.15.64-.13.02-.13-.5-.4-.96-.7-1.01-.65-1.57-2.29-1.52-3.93h0Z"/>
      <g>
        <path class="cls-3" d="M89.25,4.38c0-.9.73-1.63,1.63-1.63s1.63.73,1.63,1.63-.73,1.63-1.63,1.63-1.63-.73-1.63-1.63ZM90.89,5.16c.43,0,.79-.35.79-.78s-.35-.79-.78-.79-.79.35-.79.78h0c0,.43.35.79.78.79Z"/>
        <path class="cls-3" d="M172.81,6.99h2.76v12.62h-2.76v-10.46c0-1.78-.74-1.73-.76-1.94-.02-.22.19-.22.51-.22h.26Z"/>
        <path class="cls-3" d="M166.94,13.34h2.59v5.82c-1.71.46-3.46.7-5.23.72-6.23,0-7.27-3.6-7.26-6.35,0-4.08,2.91-6.78,7.51-6.79,2.59,0,4.9,1.23,4.98,1.27l-.55,1.54c-.19-.11-2.16-1.25-4.37-1.25-2.44,0-4.67,1.39-4.67,4.9,0,.81.14,3.04,1.71,4.22.99.74,2.27.89,3.08.89.67,0,1.34-.1,1.99-.29v-2.7c-.05-1.59-.75-1.54-.76-1.75s.19-.22.51-.22h.47s0-.01,0-.01Z"/>
        <path class="cls-3" d="M132.61,6.99h8.74v1.55h-5.98v3.64h5.32v1.57h-5.32v4.18h6.2v1.67h-8.96v-10.45c0-1.78-.75-1.73-.77-1.94-.02-.22.19-.22.51-.22h.26Z"/>
        <path class="cls-3" d="M116.74,6.96h2.08l7.94,8.83V6.96h1.98v12.64h-1.9l-8.09-8.9v8.9h-2.02v-10.69c-.05-1.58-.75-1.52-.76-1.73-.02-.2.19-.22.51-.22h.25s0-.01,0-.01Z"/>
        <path class="cls-3" d="M104.69,6.99h8.74v1.55h-5.98v3.64h5.32v1.57h-5.32v4.18h6.21v1.67h-8.98v-10.45c0-1.78-.75-1.73-.77-1.94-.02-.22.19-.22.51-.22h.26Z"/>
        <path class="cls-3" d="M74.07,6.99h8.75v1.55h-5.98v3.64h5.32v1.57h-5.32v4.18h6.2v1.67h-8.96v-10.63c-.05-1.6-.75-1.55-.76-1.76-.02-.21.19-.22.51-.22h.26Z"/>
        <path class="cls-3" d="M54.7,6.99h3.26l4.39,8.68,4.8-8.68h2.97v12.62h-2.75v-9.06l-4.98,9h-1.08l-4.64-9v9.08h-1.97v-10.72c-.06-1.55-.75-1.49-.76-1.71s.19-.22.51-.22h.25Z"/>
        <path class="cls-3" d="M39.6,9.04c-.03-1.67-.75-1.62-.76-1.83s.19-.22.51-.22h3.05v8.11c0,1.57,1.52,2.84,3.4,2.84s3.38-1.23,3.38-2.8V7h2.04v8.11c0,2.64-2.6,4.77-5.81,4.77s-5.81-2.13-5.81-4.77v-6.06h0Z"/>
        <path class="cls-3" d="M89.67,6.99h2.95l4.87,12.62h-3.05l-1.35-3.67h-4.99l-1.51,3.67h-2.13l4.55-11c.4-1.24-.31-1.2-.33-1.4s.19-.22.51-.22h.48,0s0,0,0,0ZM92.49,14.35l-1.75-4.73-1.97,4.73h3.72Z"/>
        <path class="cls-3" d="M156.22,18.55v1.08c-.2.12-.89.22-1.45.22-2.69,0-3.67-1.78-5.39-5.39h-1.88v5.15h-2.78v-10.71c-.06-1.55-.75-1.51-.76-1.72s.19-.22.51-.22h4.96c2.17,0,3.3.07,4.32.93.92.78.97,1.71.97,2.51,0,1.49-.77,2.79-2.86,3.39,1.15,2.47,2.42,4.02,3.2,4.46.36.2.75.31,1.16.32ZM147.49,12.86c1.48,0,2.25.03,2.63-.06,1.29-.29,1.86-.98,1.86-2.16,0-1.31-.69-2.1-2.85-2.1h-1.63v4.32Z"/>
      </g>
    </g>
  </g>
</svg>